<?xml version="1.0" standalone="no"?>
<!DOCTYPE svg PUBLIC "-//W3C//DTD SVG 20010904//EN"
 "http://www.w3.org/TR/2001/REC-SVG-20010904/DTD/svg10.dtd">
<svg version="1.0" xmlns="http://www.w3.org/2000/svg"
 width="2048.000000pt" height="2048.000000pt" viewBox="0 0 2048.000000 2048.000000"
 preserveAspectRatio="xMidYMid meet">
<metadata>
Created by potrace 1.16, written by Peter Selinger 2001-2019
</metadata>
<g transform="translate(0.000000,2048.000000) scale(0.100000,-0.100000)"
fill="#000000" stroke="none">
<path d="M10215 18431 c-6 -5 -246 -145 -535 -311 -289 -167 -786 -454 -1105
-638 -553 -319 -778 -450 -1407 -815 l-278 -161 0 -1956 0 -1957 308 -178
c702 -407 1531 -886 2347 -1355 242 -139 494 -285 559 -323 66 -39 124 -70
130 -70 6 0 29 11 51 25 22 14 348 202 725 418 377 216 813 467 970 558 157
91 395 229 530 307 804 465 1018 590 1041 606 l27 19 -4 1952 c-3 1577 -6
1954 -16 1964 -13 13 -140 87 -1153 672 -319 184 -647 374 -730 422 -82 48
-332 192 -555 320 -223 128 -512 296 -644 372 -131 76 -241 138 -245 138 -4 0
-11 -4 -16 -9z m530 -1841 c187 -6 377 -13 423 -16 l83 -7 28 -41 c15 -23 65
-108 111 -191 80 -145 329 -579 424 -739 25 -43 46 -81 46 -84 0 -4 -37 -27
-83 -51 -45 -24 -104 -59 -132 -76 -27 -17 -131 -78 -230 -135 -99 -57 -207
-121 -240 -142 -44 -28 -62 -35 -68 -26 -4 7 -69 121 -144 253 -75 132 -210
371 -301 530 -91 160 -196 346 -235 415 -38 69 -94 167 -123 218 -30 51 -54
97 -54 103 0 6 31 7 78 4 42 -3 230 -10 417 -15z m-528 -2057 c-2 -5 -29 -51
-60 -103 -30 -52 -143 -250 -252 -440 -108 -190 -200 -349 -204 -353 -5 -4
-43 52 -86 125 -43 73 -100 171 -128 218 -28 47 -52 88 -54 92 -2 3 52 39 119
78 68 40 222 131 343 203 218 129 317 186 323 187 2 0 1 -3 -1 -7z"/>
<path d="M15630 7400 c0 -463 2 -540 14 -540 12 0 15 42 18 263 l3 262 30 54
c56 102 149 151 283 151 125 0 197 -43 244 -145 22 -48 23 -63 26 -317 2 -156
7 -268 13 -268 13 0 12 515 -1 562 -19 68 -70 130 -134 163 -53 27 -69 30
-145 30 -47 -1 -105 -6 -128 -13 -57 -17 -121 -67 -160 -126 l-33 -48 0 256
c0 221 -2 256 -15 256 -13 0 -15 -67 -15 -540z"/>
<path d="M5932 7891 c-8 -4 -12 -19 -10 -32 4 -33 53 -40 63 -9 11 36 -22 61
-53 41z"/>
<path d="M4230 7370 c0 -333 3 -510 10 -510 6 0 10 65 10 175 l0 175 188 0
c260 0 348 22 441 106 61 54 86 121 86 229 0 108 -25 175 -86 229 -94 85 -180
106 -451 106 l-198 0 0 -510z m552 442 c112 -55 158 -134 158 -272 0 -130 -56
-217 -178 -273 -43 -20 -66 -22 -279 -25 l-233 -4 0 307 0 307 233 -4 233 -3
66 -33z"/>
<path d="M9982 7863 c-21 -40 -462 -992 -462 -997 0 -3 6 -6 13 -6 7 0 45 69
83 153 l71 152 314 3 315 2 70 -152 c47 -101 77 -154 88 -156 16 -3 16 -1 3
25 -7 15 -114 245 -238 511 -123 265 -229 482 -236 482 -7 0 -16 -8 -21 -17z
m183 -368 l134 -290 -291 -3 c-160 -1 -293 0 -296 3 -3 2 46 114 108 247 62
134 129 277 148 318 l34 75 14 -30 c8 -16 75 -160 149 -320z"/>
<path d="M8110 7700 l0 -80 -76 0 c-56 0 -75 -3 -72 -12 3 -9 30 -14 76 -16
l71 -3 3 -307 c3 -286 4 -309 23 -340 42 -70 131 -96 227 -68 55 16 87 39 70
50 -5 3 -26 -4 -48 -14 -51 -26 -138 -27 -180 -1 -61 37 -64 57 -64 385 l0
296 125 0 c104 0 125 2 125 15 0 13 -21 15 -125 15 l-125 0 0 80 c0 64 -3 80
-15 80 -12 0 -15 -16 -15 -80z"/>
<path d="M13790 7700 l0 -80 -76 0 c-56 0 -75 -3 -72 -12 3 -9 30 -14 76 -16
l71 -3 3 -307 c3 -286 4 -309 23 -340 42 -70 131 -96 227 -68 55 16 87 39 70
50 -5 3 -26 -4 -48 -14 -51 -26 -138 -27 -180 -1 -61 37 -64 57 -64 385 l0
296 125 0 c104 0 125 2 125 15 0 13 -21 15 -125 15 l-125 0 0 80 c0 64 -3 80
-15 80 -12 0 -15 -16 -15 -80z"/>
<path d="M5310 7240 c0 -331 2 -380 15 -380 13 0 15 34 15 243 0 272 7 315 63
389 39 51 110 89 177 96 35 3 50 9 50 19 0 33 -156 -12 -209 -60 -13 -12 -37
-42 -52 -66 l-29 -45 0 92 c0 75 -3 92 -15 92 -13 0 -15 -49 -15 -380z"/>
<path d="M5940 7240 c0 -331 2 -380 15 -380 13 0 15 49 15 380 0 331 -2 380
-15 380 -13 0 -15 -49 -15 -380z"/>
<path d="M6251 7553 c158 -355 317 -688 329 -690 18 -4 365 750 349 756 -6 2
-14 -1 -19 -5 -4 -5 -79 -168 -166 -361 -87 -194 -161 -353 -164 -353 -3 0
-77 161 -166 358 -106 235 -166 358 -177 360 -13 3 -11 -9 14 -65z"/>
<path d="M7323 7605 c-90 -25 -191 -84 -178 -104 4 -7 23 0 51 20 69 47 142
69 231 69 160 0 233 -68 241 -225 l4 -82 -194 -5 c-187 -4 -198 -5 -249 -31
-80 -39 -104 -80 -104 -178 0 -71 2 -80 31 -115 109 -135 377 -120 484 27 l30
42 0 -81 c0 -68 3 -82 16 -82 14 0 15 32 12 288 l-3 288 -30 60 c-26 50 -38
63 -86 87 -69 35 -177 45 -256 22z m347 -440 c0 -96 -15 -136 -71 -193 -53
-54 -104 -75 -194 -80 -97 -5 -154 9 -199 49 -107 94 -72 258 64 297 19 6 117
11 218 11 l182 1 0 -85z"/>
<path d="M8914 7609 c-103 -24 -205 -119 -241 -224 -27 -76 -24 -222 7 -300
32 -81 114 -163 195 -195 91 -36 219 -34 300 3 62 29 128 84 119 98 -3 5 -28
-9 -55 -31 -61 -48 -130 -70 -220 -70 -175 0 -323 131 -337 296 l-5 64 337 0
336 0 -6 43 c-20 141 -89 242 -201 294 -60 27 -165 38 -229 22z m234 -54 c88
-48 152 -140 168 -242 l7 -43 -322 0 -321 0 0 30 c0 60 41 142 99 201 73 72
119 89 231 86 72 -3 93 -7 138 -32z"/>
<path d="M10927 7610 c-106 -27 -196 -100 -244 -198 -25 -50 -28 -68 -28 -152
0 -88 3 -101 33 -162 65 -133 177 -201 332 -201 140 0 231 47 306 157 l35 51
-3 -150 c-4 -173 -17 -215 -86 -277 -59 -54 -130 -72 -257 -66 -108 5 -180 29
-253 85 -22 17 -37 22 -44 15 -25 -25 127 -104 236 -123 142 -24 272 6 346 81
83 82 84 87 88 548 3 359 2 402 -12 402 -14 0 -16 -17 -16 -107 l0 -107 -29
45 c-67 104 -163 159 -289 165 -42 2 -94 -1 -115 -6z m244 -48 c70 -34 125
-87 156 -150 25 -51 28 -67 28 -157 0 -85 -4 -107 -24 -147 -32 -66 -93 -125
-159 -156 -49 -23 -70 -27 -152 -27 -82 0 -103 4 -151 26 -69 33 -128 89 -159
155 -35 71 -40 198 -11 274 35 94 109 165 206 197 63 20 210 12 266 -15z"/>
<path d="M11974 7609 c-103 -24 -205 -119 -241 -224 -27 -76 -24 -222 7 -300
32 -81 114 -163 195 -195 91 -36 219 -34 300 3 62 29 128 84 119 98 -3 5 -28
-9 -55 -31 -61 -48 -130 -70 -220 -70 -175 0 -323 131 -337 296 l-5 64 337 0
336 0 -6 43 c-20 141 -89 242 -201 294 -60 27 -165 38 -229 22z m234 -54 c88
-48 152 -140 168 -242 l7 -43 -322 0 -321 0 0 30 c0 60 41 142 99 201 73 72
119 89 231 86 72 -3 93 -7 138 -32z"/>
<path d="M12730 7240 c0 -324 2 -380 14 -380 12 0 15 42 18 263 l3 262 30 54
c56 102 149 151 283 151 125 0 197 -43 244 -145 22 -48 23 -63 26 -317 2 -156
7 -268 13 -268 13 0 12 515 -1 562 -19 68 -70 130 -134 163 -53 27 -69 30
-145 30 -47 -1 -105 -6 -128 -13 -57 -17 -121 -67 -160 -126 l-33 -48 0 96 c0
79 -3 96 -15 96 -13 0 -15 -49 -15 -380z"/>
<path d="M14939 7606 c-149 -40 -254 -170 -266 -330 -13 -173 66 -315 215
-384 76 -36 208 -37 292 -4 59 23 137 89 122 104 -5 5 -24 -6 -45 -26 -58 -55
-135 -79 -237 -74 -103 5 -164 33 -229 103 -70 76 -86 122 -86 245 0 93 3 112
26 160 32 67 87 123 154 158 39 20 69 26 135 30 102 5 179 -19 237 -74 42 -40
67 -31 27 9 -81 82 -224 116 -345 83z"/>
<path d="M14353 6914 c-8 -22 10 -49 32 -49 10 0 22 7 28 16 15 24 1 49 -28
49 -15 0 -28 -7 -32 -16z"/>
<path d="M5648 3323 c23 -2 59 -2 80 0 20 2 1 4 -43 4 -44 0 -61 -2 -37 -4z"/>
<path d="M6178 3323 c23 -2 59 -2 80 0 20 2 1 4 -43 4 -44 0 -61 -2 -37 -4z"/>
<path d="M6940 3325 c0 -5 5 -17 10 -25 5 -8 10 -10 10 -5 0 6 -5 17 -10 25
-5 8 -10 11 -10 5z"/>
<path d="M7596 3323 c-11 -11 -7 -20 9 -20 8 0 15 4 15 8 0 11 -16 20 -24 12z"/>
<path d="M8023 3323 c37 -2 97 -2 135 0 37 2 6 3 -68 3 -74 0 -105 -1 -67 -3z"/>
<path d="M8533 3323 c32 -2 81 -2 110 0 29 2 3 3 -58 3 -60 0 -84 -1 -52 -3z"/>
<path d="M9386 3323 c-11 -11 -7 -20 9 -20 8 0 15 4 15 8 0 11 -16 20 -24 12z"/>
<path d="M10568 3323 c12 -2 32 -2 45 0 12 2 2 4 -23 4 -25 0 -35 -2 -22 -4z"/>
<path d="M11088 3323 c23 -2 59 -2 80 0 20 2 1 4 -43 4 -44 0 -61 -2 -37 -4z"/>
<path d="M11633 3323 c32 -2 81 -2 110 0 29 2 3 3 -58 3 -60 0 -84 -1 -52 -3z"/>
<path d="M12128 3323 c23 -2 59 -2 80 0 20 2 1 4 -43 4 -44 0 -61 -2 -37 -4z"/>
<path d="M12706 3323 c-11 -11 -7 -20 9 -20 8 0 15 4 15 8 0 11 -16 20 -24 12z"/>
<path d="M13133 3323 c37 -2 97 -2 135 0 37 2 6 3 -68 3 -74 0 -105 -1 -67 -3z"/>
<path d="M13698 3323 c12 -2 32 -2 45 0 12 2 2 4 -23 4 -25 0 -35 -2 -22 -4z"/>
<path d="M14218 3323 c23 -2 59 -2 80 0 20 2 1 4 -43 4 -44 0 -61 -2 -37 -4z"/>
<path d="M14768 3323 c12 -2 30 -2 40 0 9 3 -1 5 -23 4 -22 0 -30 -2 -17 -4z"/>
<path d="M10489 3295 c-20 -13 -39 -32 -43 -42 -5 -14 -2 -13 11 4 10 11 34
31 53 42 19 12 30 21 25 21 -6 0 -27 -11 -46 -25z"/>
<path d="M10665 3304 c17 -9 41 -28 53 -42 21 -24 23 -24 12 -4 -11 23 -66 62
-85 62 -5 -1 4 -8 20 -16z"/>
<path d="M13619 3295 c-20 -13 -39 -32 -43 -42 -5 -14 -2 -13 11 4 10 11 34
31 53 42 19 12 30 21 25 21 -6 0 -27 -11 -46 -25z"/>
<path d="M13795 3304 c17 -9 41 -28 53 -42 21 -24 23 -24 12 -4 -11 23 -66 62
-85 62 -5 -1 4 -8 20 -16z"/>
<path d="M14702 3297 c-29 -31 -29 -78 1 -103 22 -19 22 -19 5 2 -27 31 -23
79 8 103 15 12 22 21 17 21 -5 0 -19 -10 -31 -23z"/>
<path d="M14850 3310 c8 -5 20 -10 25 -10 6 0 3 5 -5 10 -8 5 -19 10 -25 10
-5 0 -3 -5 5 -10z"/>
<path d="M5800 3306 c0 -2 8 -10 18 -17 15 -13 16 -12 3 4 -13 16 -21 21 -21
13z"/>
<path d="M6330 3306 c0 -2 8 -10 18 -17 15 -13 16 -12 3 4 -13 16 -21 21 -21
13z"/>
<path d="M11240 3306 c0 -2 8 -10 18 -17 15 -13 16 -12 3 4 -13 16 -21 21 -21
13z"/>
<path d="M12280 3306 c0 -2 8 -10 18 -17 15 -13 16 -12 3 4 -13 16 -21 21 -21
13z"/>
<path d="M14370 3306 c0 -2 8 -10 18 -17 15 -13 16 -12 3 4 -13 16 -21 21 -21
13z"/>
<path d="M7212 3275 c-17 -37 -14 -45 4 -12 9 16 14 31 11 33 -2 2 -9 -7 -15
-21z"/>
<path d="M7557 3235 c-24 -50 -20 -58 4 -12 11 22 19 41 17 43 -3 2 -12 -12
-21 -31z"/>
<path d="M7631 3265 c0 -5 8 -26 19 -45 11 -19 19 -30 19 -25 0 6 -8 26 -19
45 -11 19 -19 31 -19 25z"/>
<path d="M9347 3235 c-24 -50 -20 -58 4 -12 11 22 19 41 17 43 -3 2 -12 -12
-21 -31z"/>
<path d="M9421 3265 c0 -5 8 -26 19 -45 11 -19 19 -30 19 -25 0 6 -8 26 -19
45 -11 19 -19 31 -19 25z"/>
<path d="M12667 3235 c-24 -50 -20 -58 4 -12 11 22 19 41 17 43 -3 2 -12 -12
-21 -31z"/>
<path d="M12741 3265 c0 -5 8 -26 19 -45 11 -19 19 -30 19 -25 0 6 -8 26 -19
45 -11 19 -19 31 -19 25z"/>
<path d="M6971 3255 c0 -5 6 -21 14 -35 8 -14 14 -20 14 -15 0 6 -6 21 -14 35
-8 14 -14 21 -14 15z"/>
<path d="M5842 3220 c0 -19 2 -27 5 -17 2 9 2 25 0 35 -3 9 -5 1 -5 -18z"/>
<path d="M6372 3220 c0 -19 2 -27 5 -17 2 9 2 25 0 35 -3 9 -5 1 -5 -18z"/>
<path d="M11282 3220 c0 -19 2 -27 5 -17 2 9 2 25 0 35 -3 9 -5 1 -5 -18z"/>
<path d="M12322 3220 c0 -19 2 -27 5 -17 2 9 2 25 0 35 -3 9 -5 1 -5 -18z"/>
<path d="M14412 3220 c0 -19 2 -27 5 -17 2 9 2 25 0 35 -3 9 -5 1 -5 -18z"/>
<path d="M7172 3185 c-17 -37 -14 -45 4 -12 9 16 14 31 11 33 -2 2 -9 -7 -15
-21z"/>
<path d="M10753 3160 c0 -30 2 -43 4 -27 2 15 2 39 0 55 -2 15 -4 2 -4 -28z"/>
<path d="M13883 3160 c0 -30 2 -43 4 -27 2 15 2 39 0 55 -2 15 -4 2 -4 -28z"/>
<path d="M10423 3160 c0 -25 2 -35 4 -22 2 12 2 32 0 45 -2 12 -4 2 -4 -23z"/>
<path d="M13553 3160 c0 -25 2 -35 4 -22 2 12 2 32 0 45 -2 12 -4 2 -4 -23z"/>
<path d="M7011 3165 c0 -5 6 -21 14 -35 8 -14 14 -20 14 -15 0 6 -6 21 -14 35
-8 14 -14 21 -14 15z"/>
<path d="M8528 3163 c29 -2 74 -2 100 0 26 2 2 3 -53 3 -55 0 -76 -1 -47 -3z"/>
<path d="M11628 3163 c29 -2 74 -2 100 0 26 2 2 3 -53 3 -55 0 -76 -1 -47 -3z"/>
<path d="M14758 3163 c7 -3 16 -2 19 1 4 3 -2 6 -13 5 -11 0 -14 -3 -6 -6z"/>
<path d="M5795 3139 c-16 -10 -25 -19 -19 -19 7 0 22 9 35 20 30 24 23 24 -16
-1z"/>
<path d="M6325 3139 c-22 -14 -51 -19 -110 -21 l-80 -2 75 -3 c52 -3 81 -9 95
-21 19 -16 19 -16 5 2 -11 15 -12 20 -3 23 14 5 61 43 53 42 -3 0 -18 -9 -35
-20z"/>
<path d="M11235 3139 c-16 -10 -25 -19 -19 -19 7 0 22 9 35 20 30 24 23 24
-16 -1z"/>
<path d="M12275 3139 c-22 -14 -51 -19 -110 -21 l-80 -2 75 -3 c52 -3 81 -9
95 -21 19 -16 19 -16 5 2 -11 15 -12 20 -3 23 14 5 61 43 53 42 -3 0 -18 -9
-35 -20z"/>
<path d="M14365 3139 c-22 -14 -51 -19 -110 -21 l-80 -2 75 -3 c52 -3 81 -9
95 -21 19 -16 19 -16 5 2 -11 15 -12 20 -3 23 14 5 61 43 53 42 -3 0 -18 -9
-35 -20z"/>
<path d="M14798 3153 c7 -3 16 -2 19 1 4 3 -2 6 -13 5 -11 0 -14 -3 -6 -6z"/>
<path d="M14831 3147 c2 -2 18 -11 34 -21 l30 -17 -24 20 c-13 12 -28 21 -34
21 -6 0 -8 -1 -6 -3z"/>
<path d="M7497 3105 c-18 -39 -23 -61 -6 -32 8 14 25 17 114 17 89 0 106 -3
114 -17 6 -10 10 -13 10 -8 0 6 -9 26 -20 45 -12 21 -17 26 -14 13 6 -23 5
-23 -90 -23 -92 0 -96 1 -90 20 10 32 0 23 -18 -15z"/>
<path d="M9287 3105 c-18 -39 -23 -61 -6 -32 8 14 25 17 114 17 89 0 106 -3
114 -17 6 -10 10 -13 10 -8 0 6 -9 26 -20 45 -12 21 -17 26 -14 13 6 -23 5
-23 -90 -23 -92 0 -96 1 -90 20 10 32 0 23 -18 -15z"/>
<path d="M12607 3105 c-18 -39 -23 -61 -6 -32 8 14 25 17 114 17 89 0 106 -3
114 -17 6 -10 10 -13 10 -8 0 6 -9 26 -20 45 -12 21 -17 26 -14 13 6 -23 5
-23 -90 -23 -92 0 -96 1 -90 20 10 32 0 23 -18 -15z"/>
<path d="M5643 3113 c20 -2 54 -2 75 0 20 2 3 4 -38 4 -41 0 -58 -2 -37 -4z"/>
<path d="M7132 3095 c-17 -37 -14 -45 4 -12 9 16 14 31 11 33 -2 2 -9 -7 -15
-21z"/>
<path d="M11083 3113 c20 -2 54 -2 75 0 20 2 3 4 -38 4 -41 0 -58 -2 -37 -4z"/>
<path d="M14892 3075 c0 -16 2 -22 5 -12 2 9 2 23 0 30 -3 6 -5 -1 -5 -18z"/>
<path d="M7051 3075 c0 -5 6 -21 14 -35 8 -14 14 -20 14 -15 0 6 -6 21 -14 35
-8 14 -14 21 -14 15z"/>
<path d="M10450 3061 c5 -11 15 -23 21 -27 6 -3 3 5 -6 20 -20 30 -30 35 -15
7z"/>
<path d="M10700 3042 c-25 -26 -28 -32 -11 -21 21 13 61 60 50 58 -2 0 -20
-17 -39 -37z"/>
<path d="M13580 3061 c5 -11 15 -23 21 -27 6 -3 3 5 -6 20 -20 30 -30 35 -15
7z"/>
<path d="M13830 3042 c-25 -26 -28 -32 -11 -21 21 13 61 60 50 58 -2 0 -20
-17 -39 -37z"/>
<path d="M6355 3016 c10 -14 19 -26 22 -26 7 0 -17 39 -28 46 -6 3 -3 -5 6
-20z"/>
<path d="M12305 3016 c10 -14 19 -26 22 -26 7 0 -17 39 -28 46 -6 3 -3 -5 6
-20z"/>
<path d="M14395 3016 c10 -14 19 -26 22 -26 7 0 -17 39 -28 46 -6 3 -3 -5 6
-20z"/>
<path d="M14869 3023 c-13 -16 -12 -17 4 -4 16 13 21 21 13 21 -2 0 -10 -8
-17 -17z"/>
<path d="M7093 3014 c-15 -16 -16 -24 -4 -24 8 0 24 30 19 35 -2 2 -9 -3 -15
-11z"/>
<path d="M7456 3015 c-9 -26 -7 -32 5 -12 6 10 9 21 6 23 -2 3 -7 -2 -11 -11z"/>
<path d="M7740 3025 c0 -5 5 -17 10 -25 5 -8 10 -10 10 -5 0 6 -5 17 -10 25
-5 8 -10 11 -10 5z"/>
<path d="M9246 3015 c-9 -26 -7 -32 5 -12 6 10 9 21 6 23 -2 3 -7 -2 -11 -11z"/>
<path d="M9530 3025 c0 -5 5 -17 10 -25 5 -8 10 -10 10 -5 0 6 -5 17 -10 25
-5 8 -10 11 -10 5z"/>
<path d="M10504 3016 c11 -9 24 -16 30 -16 12 0 7 5 -24 19 -24 11 -24 11 -6
-3z"/>
<path d="M12566 3015 c-9 -26 -7 -32 5 -12 6 10 9 21 6 23 -2 3 -7 -2 -11 -11z"/>
<path d="M12850 3025 c0 -5 5 -17 10 -25 5 -8 10 -10 10 -5 0 6 -5 17 -10 25
-5 8 -10 11 -10 5z"/>
<path d="M13634 3016 c11 -9 24 -16 30 -16 12 0 7 5 -24 19 -24 11 -24 11 -6
-3z"/>
<path d="M8533 2993 c31 -2 83 -2 115 0 31 2 5 3 -58 3 -63 0 -89 -1 -57 -3z"/>
<path d="M10568 2993 c12 -2 32 -2 45 0 12 2 2 4 -23 4 -25 0 -35 -2 -22 -4z"/>
<path d="M11633 2993 c31 -2 83 -2 115 0 31 2 5 3 -58 3 -63 0 -89 -1 -57 -3z"/>
<path d="M13698 2993 c12 -2 32 -2 45 0 12 2 2 4 -23 4 -25 0 -35 -2 -22 -4z"/>
<path d="M14768 2993 c12 -2 30 -2 40 0 9 3 -1 5 -23 4 -22 0 -30 -2 -17 -4z"/>
</g>
</svg>
